<mxfile host="app.diagrams.net" agent="Mozilla/5.0 (Windows NT 10.0; Win64; x64) AppleWebKit/537.36 (KHTML, like Gecko) Chrome/128.0.0.0 Safari/537.36" version="24.7.12">
  <diagram id="C5RBs43oDa-KdzZeNtuy" name="Page-1">
    <mxGraphModel dx="1434" dy="780" grid="1" gridSize="10" guides="1" tooltips="1" connect="1" arrows="1" fold="1" page="1" pageScale="1" pageWidth="827" pageHeight="1169" math="0" shadow="0">
      <root>
        <mxCell id="WIyWlLk6GJQsqaUBKTNV-0" />
        <mxCell id="WIyWlLk6GJQsqaUBKTNV-1" parent="WIyWlLk6GJQsqaUBKTNV-0" />
        <mxCell id="-a0RLwqQY_5m9A-QYs7j-11" style="edgeStyle=orthogonalEdgeStyle;rounded=0;orthogonalLoop=1;jettySize=auto;html=1;exitX=0.5;exitY=1;exitDx=0;exitDy=0;entryX=0.5;entryY=0;entryDx=0;entryDy=0;" edge="1" parent="WIyWlLk6GJQsqaUBKTNV-1" source="-a0RLwqQY_5m9A-QYs7j-0" target="-a0RLwqQY_5m9A-QYs7j-9">
          <mxGeometry relative="1" as="geometry" />
        </mxCell>
        <mxCell id="-a0RLwqQY_5m9A-QYs7j-0" value="Старт" style="ellipse;whiteSpace=wrap;html=1;" vertex="1" parent="WIyWlLk6GJQsqaUBKTNV-1">
          <mxGeometry x="320" y="80" width="80" height="40" as="geometry" />
        </mxCell>
        <mxCell id="-a0RLwqQY_5m9A-QYs7j-14" style="edgeStyle=orthogonalEdgeStyle;rounded=0;orthogonalLoop=1;jettySize=auto;html=1;exitX=0.5;exitY=1;exitDx=0;exitDy=0;entryX=0.5;entryY=0;entryDx=0;entryDy=0;" edge="1" parent="WIyWlLk6GJQsqaUBKTNV-1" source="-a0RLwqQY_5m9A-QYs7j-1" target="-a0RLwqQY_5m9A-QYs7j-13">
          <mxGeometry relative="1" as="geometry" />
        </mxCell>
        <mxCell id="-a0RLwqQY_5m9A-QYs7j-1" value="Выбор фигуры" style="shape=parallelogram;perimeter=parallelogramPerimeter;whiteSpace=wrap;html=1;fixedSize=1;" vertex="1" parent="WIyWlLk6GJQsqaUBKTNV-1">
          <mxGeometry x="320" y="240" width="80" height="40" as="geometry" />
        </mxCell>
        <mxCell id="-a0RLwqQY_5m9A-QYs7j-12" style="edgeStyle=orthogonalEdgeStyle;rounded=0;orthogonalLoop=1;jettySize=auto;html=1;exitX=0.5;exitY=1;exitDx=0;exitDy=0;" edge="1" parent="WIyWlLk6GJQsqaUBKTNV-1" source="-a0RLwqQY_5m9A-QYs7j-9" target="-a0RLwqQY_5m9A-QYs7j-1">
          <mxGeometry relative="1" as="geometry" />
        </mxCell>
        <mxCell id="-a0RLwqQY_5m9A-QYs7j-9" value="Случайный выбор" style="rounded=1;whiteSpace=wrap;html=1;" vertex="1" parent="WIyWlLk6GJQsqaUBKTNV-1">
          <mxGeometry x="320" y="160" width="80" height="40" as="geometry" />
        </mxCell>
        <mxCell id="-a0RLwqQY_5m9A-QYs7j-16" style="edgeStyle=orthogonalEdgeStyle;rounded=0;orthogonalLoop=1;jettySize=auto;html=1;exitX=0.5;exitY=1;exitDx=0;exitDy=0;entryX=0.5;entryY=0;entryDx=0;entryDy=0;" edge="1" parent="WIyWlLk6GJQsqaUBKTNV-1" source="-a0RLwqQY_5m9A-QYs7j-13" target="-a0RLwqQY_5m9A-QYs7j-15">
          <mxGeometry relative="1" as="geometry" />
        </mxCell>
        <mxCell id="-a0RLwqQY_5m9A-QYs7j-13" value="Авто-выбор фигуры для 2-го игрока" style="rounded=1;whiteSpace=wrap;html=1;" vertex="1" parent="WIyWlLk6GJQsqaUBKTNV-1">
          <mxGeometry x="320" y="320" width="80" height="40" as="geometry" />
        </mxCell>
        <mxCell id="-a0RLwqQY_5m9A-QYs7j-18" style="edgeStyle=orthogonalEdgeStyle;rounded=0;orthogonalLoop=1;jettySize=auto;html=1;exitX=0.5;exitY=1;exitDx=0;exitDy=0;entryX=0.5;entryY=0;entryDx=0;entryDy=0;" edge="1" parent="WIyWlLk6GJQsqaUBKTNV-1" source="-a0RLwqQY_5m9A-QYs7j-15" target="-a0RLwqQY_5m9A-QYs7j-17">
          <mxGeometry relative="1" as="geometry" />
        </mxCell>
        <mxCell id="-a0RLwqQY_5m9A-QYs7j-15" value="Старт игры" style="rounded=1;whiteSpace=wrap;html=1;" vertex="1" parent="WIyWlLk6GJQsqaUBKTNV-1">
          <mxGeometry x="320" y="400" width="80" height="40" as="geometry" />
        </mxCell>
        <mxCell id="-a0RLwqQY_5m9A-QYs7j-17" value="А" style="shape=offPageConnector;whiteSpace=wrap;html=1;size=0.3333333333333333;" vertex="1" parent="WIyWlLk6GJQsqaUBKTNV-1">
          <mxGeometry x="340" y="480" width="40" height="40" as="geometry" />
        </mxCell>
        <mxCell id="-a0RLwqQY_5m9A-QYs7j-22" style="edgeStyle=orthogonalEdgeStyle;rounded=0;orthogonalLoop=1;jettySize=auto;html=1;entryX=0.5;entryY=0;entryDx=0;entryDy=0;" edge="1" parent="WIyWlLk6GJQsqaUBKTNV-1" source="-a0RLwqQY_5m9A-QYs7j-19">
          <mxGeometry relative="1" as="geometry">
            <mxPoint x="600" y="160" as="targetPoint" />
          </mxGeometry>
        </mxCell>
        <mxCell id="-a0RLwqQY_5m9A-QYs7j-19" value="А" style="shape=offPageConnector;whiteSpace=wrap;html=1;size=0.3333333333333333;" vertex="1" parent="WIyWlLk6GJQsqaUBKTNV-1">
          <mxGeometry x="580" y="80" width="40" height="40" as="geometry" />
        </mxCell>
        <mxCell id="-a0RLwqQY_5m9A-QYs7j-26" style="edgeStyle=orthogonalEdgeStyle;rounded=0;orthogonalLoop=1;jettySize=auto;html=1;exitX=0.5;exitY=1;exitDx=0;exitDy=0;entryX=0.5;entryY=0;entryDx=0;entryDy=0;" edge="1" parent="WIyWlLk6GJQsqaUBKTNV-1" source="-a0RLwqQY_5m9A-QYs7j-23" target="-a0RLwqQY_5m9A-QYs7j-25">
          <mxGeometry relative="1" as="geometry" />
        </mxCell>
        <mxCell id="-a0RLwqQY_5m9A-QYs7j-23" value="Пока игра идет" style="shape=loopLimit;whiteSpace=wrap;html=1;" vertex="1" parent="WIyWlLk6GJQsqaUBKTNV-1">
          <mxGeometry x="560" y="160" width="80" height="40" as="geometry" />
        </mxCell>
        <mxCell id="-a0RLwqQY_5m9A-QYs7j-28" style="edgeStyle=orthogonalEdgeStyle;rounded=0;orthogonalLoop=1;jettySize=auto;html=1;exitX=0.5;exitY=1;exitDx=0;exitDy=0;entryX=0.5;entryY=0;entryDx=0;entryDy=0;" edge="1" parent="WIyWlLk6GJQsqaUBKTNV-1" source="-a0RLwqQY_5m9A-QYs7j-25" target="-a0RLwqQY_5m9A-QYs7j-27">
          <mxGeometry relative="1" as="geometry" />
        </mxCell>
        <mxCell id="-a0RLwqQY_5m9A-QYs7j-25" value="Ход игрока" style="rounded=1;whiteSpace=wrap;html=1;" vertex="1" parent="WIyWlLk6GJQsqaUBKTNV-1">
          <mxGeometry x="560" y="240" width="80" height="40" as="geometry" />
        </mxCell>
        <mxCell id="-a0RLwqQY_5m9A-QYs7j-32" style="edgeStyle=orthogonalEdgeStyle;rounded=0;orthogonalLoop=1;jettySize=auto;html=1;exitX=0;exitY=0.5;exitDx=0;exitDy=0;entryX=0.5;entryY=0;entryDx=0;entryDy=0;" edge="1" parent="WIyWlLk6GJQsqaUBKTNV-1" source="-a0RLwqQY_5m9A-QYs7j-27" target="-a0RLwqQY_5m9A-QYs7j-30">
          <mxGeometry relative="1" as="geometry" />
        </mxCell>
        <mxCell id="-a0RLwqQY_5m9A-QYs7j-34" style="edgeStyle=orthogonalEdgeStyle;rounded=0;orthogonalLoop=1;jettySize=auto;html=1;exitX=1;exitY=0.5;exitDx=0;exitDy=0;entryX=1;entryY=0.75;entryDx=0;entryDy=0;" edge="1" parent="WIyWlLk6GJQsqaUBKTNV-1" source="-a0RLwqQY_5m9A-QYs7j-27" target="-a0RLwqQY_5m9A-QYs7j-23">
          <mxGeometry relative="1" as="geometry">
            <Array as="points">
              <mxPoint x="700" y="360" />
              <mxPoint x="700" y="190" />
            </Array>
          </mxGeometry>
        </mxCell>
        <mxCell id="-a0RLwqQY_5m9A-QYs7j-27" value="Если игрок&lt;div&gt;выиграл&lt;/div&gt;" style="rhombus;whiteSpace=wrap;html=1;" vertex="1" parent="WIyWlLk6GJQsqaUBKTNV-1">
          <mxGeometry x="540" y="320" width="120" height="80" as="geometry" />
        </mxCell>
        <mxCell id="-a0RLwqQY_5m9A-QYs7j-33" style="edgeStyle=orthogonalEdgeStyle;rounded=0;orthogonalLoop=1;jettySize=auto;html=1;exitX=0.5;exitY=1;exitDx=0;exitDy=0;entryX=0;entryY=0.5;entryDx=0;entryDy=0;" edge="1" parent="WIyWlLk6GJQsqaUBKTNV-1" source="-a0RLwqQY_5m9A-QYs7j-30" target="-a0RLwqQY_5m9A-QYs7j-31">
          <mxGeometry relative="1" as="geometry" />
        </mxCell>
        <mxCell id="-a0RLwqQY_5m9A-QYs7j-30" value="Объявление победителя" style="rounded=1;whiteSpace=wrap;html=1;" vertex="1" parent="WIyWlLk6GJQsqaUBKTNV-1">
          <mxGeometry x="480" y="400" width="80" height="40" as="geometry" />
        </mxCell>
        <mxCell id="-a0RLwqQY_5m9A-QYs7j-31" value="Конец игры" style="ellipse;whiteSpace=wrap;html=1;" vertex="1" parent="WIyWlLk6GJQsqaUBKTNV-1">
          <mxGeometry x="560" y="480" width="80" height="40" as="geometry" />
        </mxCell>
        <mxCell id="-a0RLwqQY_5m9A-QYs7j-35" value="Да" style="text;html=1;align=center;verticalAlign=middle;resizable=0;points=[];autosize=1;strokeColor=none;fillColor=none;" vertex="1" parent="WIyWlLk6GJQsqaUBKTNV-1">
          <mxGeometry x="520" y="330" width="40" height="30" as="geometry" />
        </mxCell>
        <mxCell id="-a0RLwqQY_5m9A-QYs7j-36" value="Нет" style="text;html=1;align=center;verticalAlign=middle;resizable=0;points=[];autosize=1;strokeColor=none;fillColor=none;" vertex="1" parent="WIyWlLk6GJQsqaUBKTNV-1">
          <mxGeometry x="660" y="330" width="40" height="30" as="geometry" />
        </mxCell>
      </root>
    </mxGraphModel>
  </diagram>
</mxfile>
